<svg xmlns="http://www.w3.org/2000/svg" viewBox="0 0 64 64"><g id="Layer_7" data-name="Layer 7"><path d="M59,0H32a1,1,0,0,0-1,1V9a1,1,0,0,0,.293.707L33.586,12,4.293,41.293A1,1,0,0,0,4,42v8a1,1,0,0,0,.293.707l13,13a1,1,0,0,0,1.414,0L52,30.414l6.293,6.293A1,1,0,0,0,60,36V1A1,1,0,0,0,59,0ZM33,8.586V3.415L37.585,8,35,10.585Zm2.69,4.137.017-.016.016-.017,3.983-3.983a1,1,0,0,0,0-1.414L34.414,2H58V25.586l-5.3-5.3a1.029,1.029,0,0,0-1.414,0L18,53.586,6.414,42ZM19,55.414,51,23.409l0,5.177-32,32Zm-13-11,11,11v5.172l-11-11ZM53,28.586l0-5.175,5,5v5.172Z"/></g></svg>