<svg id="Ebene_1" data-name="Ebene 1" xmlns="http://www.w3.org/2000/svg" viewBox="0 0 56 64"><defs><style>.cls-1{fill:#fff;}</style></defs><g id="Layer_7" data-name="Layer 7"><path class="cls-1" d="M59,0H32a1,1,0,0,0-1,1V9a1,1,0,0,0,.29.71L33.59,12,4.29,41.29A1,1,0,0,0,4,42v8a1,1,0,0,0,.29.71l13,13a1,1,0,0,0,1.42,0L52,30.41l6.29,6.3a1,1,0,0,0,1.42,0A1,1,0,0,0,60,36V1A1,1,0,0,0,59,0ZM33,8.59V3.41L37.58,8,35,10.58Zm2.69,4.13h0v0l4-4a1,1,0,0,0,0-1.42L34.41,2H58V25.59l-5.3-5.3a1,1,0,0,0-1.41,0L18,53.59,6.41,42ZM19,55.41l32-32v5.18l-32,32Zm-13-11,11,11v5.18l-11-11ZM53,28.59V23.41l5,5v5.17Z" transform="translate(-4 0)"/></g></svg>